<svg xmlns="http://www.w3.org/2000/svg">
    <symbol id="text-logo" viewBox="0 0 240 45" fill="none">
        <path d="M46.4271 7.07203C46.4612 6.65134 46.4498 6.22835 46.3931 5.80997C46.3905 5.77031 46.3858 5.7308 46.3789 5.69161C45.9992 2.72023 43.2985 0.370917 40.1542 0.368164H6.77031C3.62605 0.368164 0.925298 2.72023 0.545549 5.69161C0.542926 5.73128 0.5382 5.77078 0.531383 5.80997C0.474733 6.22835 0.463337 6.65134 0.497377 7.07203C0.470927 17.6932 0.470927 28.3144 0.497377 38.9356C0.507295 42.2951 3.47301 44.9816 6.99986 44.9665C10.4346 44.9527 13.3436 42.2029 13.3635 38.8558C13.3975 33.2379 13.3734 27.6199 13.3734 22.0033V6.56968C13.3819 5.96825 13.3607 5.36544 13.3918 4.764C13.3904 4.74246 13.3904 4.72086 13.3918 4.69932C13.4368 4.25929 13.6312 3.84628 13.9444 3.52535C14.151 3.34345 14.397 3.20894 14.6643 3.13174C14.8686 3.06943 15.0821 3.03968 15.2962 3.04365C15.4617 3.05736 15.6246 3.09206 15.7808 3.14687C16.103 3.25287 16.3869 3.44688 16.5984 3.70564C16.8718 4.09001 17.0122 4.54887 16.9994 5.01586C16.9994 10.8843 16.9867 16.7542 16.9994 22.624C17.0009 23.2254 17.0901 23.8236 17.2644 24.4008C17.6162 25.6041 18.3349 26.6757 19.3258 27.4746C20.3168 28.2735 21.5336 28.7622 22.8161 28.8764H22.8558C22.945 28.8847 23.0357 28.8916 23.1264 28.8957H23.7782C23.8703 28.8957 23.9624 28.8847 24.0531 28.8764H24.09C25.3729 28.7631 26.5903 28.2745 27.5815 27.4752C28.5727 26.6759 29.291 25.6034 29.6417 24.3994C29.8146 23.8224 29.9038 23.2249 29.9066 22.624C29.9236 16.7542 29.9066 10.8843 29.9066 5.01586C29.8926 4.54892 30.0326 4.08984 30.3062 3.70564C30.518 3.44655 30.8025 3.2525 31.1252 3.14687C31.2814 3.09191 31.4443 3.0572 31.6098 3.04365C31.824 3.03987 32.0374 3.06962 32.2418 3.13174C32.5089 3.20924 32.7549 3.34372 32.9616 3.52535C33.2734 3.84668 33.4676 4.25875 33.5143 4.69794C33.5157 4.71994 33.5157 4.742 33.5143 4.764C33.5454 5.36544 33.5242 5.96825 33.5327 6.56968V22.0033C33.5327 27.6199 33.5086 33.2379 33.5426 38.8558C33.5624 42.2029 36.4715 44.9527 39.9062 44.9665C43.4373 44.9816 46.3988 42.2951 46.4087 38.9356C46.4484 28.3154 46.4545 17.6942 46.4271 7.07203Z" fill="currentColor"/>
        <path d="M86.475 22.9166C86.475 16.3755 86.475 9.65504 86.475 6.11783C86.343 4.60137 85.6482 3.18319 84.5198 2.12727C83.3915 1.07135 81.9065 0.449656 80.3414 0.37793H79.7332C71.9276 0.37793 70.1941 0.37793 60.4285 0.37793C57.0379 0.37793 54.1619 3.10915 54.1545 6.40481C54.1249 17.2564 54.1249 28.1064 54.1545 38.9548C54.1545 42.3031 57.1241 45.0033 60.6575 44.9865C64.0925 44.9746 67.0029 42.2242 67.0226 38.8759C67.0546 33.4756 67.0349 31.5575 67.0226 26.1573H73.5478C73.5478 26.2386 73.5626 31.2419 73.5626 32.739C73.5626 34.7336 73.5626 36.7282 73.5626 38.7181C73.5564 39.5385 73.7174 40.3519 74.0364 41.1116C74.3554 41.8713 74.826 42.5622 75.4211 43.1444C76.0162 43.7267 76.724 44.1887 77.5038 44.5041C78.2836 44.8194 79.1199 44.9817 79.9646 44.9817C80.8163 44.9865 81.6604 44.8273 82.4484 44.5135C83.2364 44.1996 83.9525 43.7373 84.5555 43.1531C85.1586 42.569 85.6365 41.8746 85.9617 41.1101C86.2869 40.3456 86.453 39.5261 86.4504 38.6989C86.4775 35.9246 86.4775 29.5079 86.475 22.9166ZM73.5724 8.04786V6.13456C73.5724 6.29958 73.5527 6.46702 73.5527 6.63682V18.0353H67.0325C67.0325 14.8568 67.0325 11.1976 67.0325 8.01916C67.0349 5.1229 73.5724 5.16834 73.5724 8.04786Z" fill="currentColor"/>
        <path d="M122.628 26.1573H123.547C124.563 26.1573 125.538 25.7652 126.257 25.0674C126.976 24.3696 127.38 23.4231 127.381 22.4359C127.381 17.3489 127.381 8.57881 127.381 6.11783C127.249 4.60137 126.554 3.18319 125.426 2.12727C124.297 1.07135 122.812 0.449656 121.247 0.37793H120.639C112.833 0.37793 111.1 0.37793 101.334 0.37793C97.9436 0.37793 95.0701 3.10915 95.0602 6.40481C95.034 17.2564 95.034 28.1064 95.0602 38.9548C95.0602 42.3031 98.0323 45.0033 101.563 44.9865C105.011 44.9746 107.909 42.2242 107.928 38.8759C107.96 33.4756 107.928 31.5575 107.928 26.1573H111.043L116.835 41.5258C117.333 42.838 118.346 43.9051 119.653 44.494C120.959 45.0828 122.452 45.1456 123.805 44.6684C125.156 44.1831 126.254 43.1986 126.861 41.9297C127.467 40.6608 127.532 39.2105 127.041 37.8953L122.628 26.1573ZM107.938 18.0425C107.938 14.864 107.938 11.2048 107.938 8.02634C107.938 5.12291 114.473 5.16834 114.473 8.04786L114.454 18.0425H107.938Z" fill="currentColor"/>
        <path d="M235.095 26.1475H236.016C236.52 26.1481 237.019 26.0523 237.484 25.8656C237.95 25.6789 238.373 25.4049 238.729 25.0593C239.086 24.7138 239.369 24.3033 239.562 23.8515C239.755 23.3997 239.855 22.9153 239.855 22.4261C239.855 17.3391 239.855 8.56904 239.855 6.10806C239.723 4.59161 239.028 3.17342 237.9 2.11751C236.771 1.06159 235.286 0.43989 233.721 0.368164H233.113C225.305 0.368164 223.574 0.368164 213.808 0.368164C210.418 0.368164 207.542 3.09939 207.534 6.39505C207.505 17.2466 207.505 28.0967 207.534 38.9451C207.534 42.2934 210.506 44.9935 214.04 44.9767C217.487 44.9648 220.383 42.2144 220.403 38.8661C220.437 33.4658 220.415 31.5478 220.415 26.1475H223.53L229.321 41.5161C229.82 42.8282 230.833 43.8953 232.139 44.4842C233.445 45.0731 234.938 45.1358 236.292 44.6587C237.643 44.1733 238.741 43.1888 239.347 41.9199C239.953 40.651 240.018 39.2007 239.527 37.8856L235.095 26.1475ZM220.403 18.0327C220.403 14.8542 220.403 11.195 220.403 8.01657C220.403 5.11314 226.94 5.15857 226.94 8.03809L226.92 18.0327H220.403Z" fill="currentColor"/>
        <path d="M164.759 36.448L152.647 19.8836L163.39 10.6232C164.432 9.60639 165.016 8.23064 165.016 6.7966C165.016 5.36256 164.432 3.98681 163.39 2.97C162.343 1.95994 160.927 1.39311 159.451 1.39311C157.975 1.39311 156.558 1.95994 155.511 2.97L148.294 9.18822V5.78974C148.289 4.3559 147.701 2.98208 146.657 1.96842C145.613 0.954764 144.198 0.383668 142.722 0.379883C141.247 0.385558 139.834 0.957508 138.791 1.97096C137.749 2.98441 137.161 4.35714 137.157 5.78974V39.5882C137.161 41.0218 137.749 42.3955 138.793 43.4095C139.836 44.4235 141.251 44.9954 142.727 45.0004C144.203 44.996 145.618 44.4244 146.662 43.4103C147.706 42.3963 148.294 41.0222 148.299 39.5882V32.6309L155.686 42.726C156.544 43.893 157.843 44.6827 159.298 44.9224C160.754 45.1622 162.248 44.8325 163.454 44.0055C164.657 43.1701 165.47 41.9054 165.715 40.4887C165.96 39.072 165.616 37.6189 164.759 36.448Z" fill="currentColor"/>
        <path d="M194.13 12.8668C195.835 12.8617 197.469 12.2017 198.674 11.0308C199.879 9.85995 200.559 8.27335 200.564 6.61748C200.559 4.96161 199.879 3.37501 198.674 2.20413C197.469 1.03325 195.835 0.373211 194.13 0.368164H180.248C178.543 0.372583 176.909 1.03241 175.703 2.20343C174.497 3.37444 173.818 4.96142 173.813 6.61748V22.6772V38.737C173.817 40.3935 174.496 41.9811 175.702 43.1526C176.908 44.3241 178.542 44.9843 180.248 44.9887H194.13C195.835 44.9837 197.469 44.3233 198.675 43.1519C199.88 41.9805 200.56 40.3933 200.564 38.737C200.559 37.0811 199.879 35.4945 198.674 34.3237C197.469 33.1528 195.835 32.4927 194.13 32.4877H186.682V28.9266H194.13C195.835 28.9215 197.469 28.2615 198.674 27.0906C199.879 25.9197 200.559 24.3331 200.564 22.6772C200.559 21.0214 199.879 19.4348 198.674 18.2639C197.469 17.093 195.835 16.433 194.13 16.4279H186.682V12.8668H194.13Z" fill="currentColor"/>
    </symbol>

    <symbol id="logo" viewBox="0 0 174 163" fill="none" >
        <path d="M173.864 24.358C173.992 22.8295 173.949 21.2926 173.736 19.7725C173.726 19.6283 173.708 19.4848 173.682 19.3424C172.251 8.54606 162.076 0.0100012 150.229 0H24.4502C12.6037 0 2.42821 8.54606 0.997449 19.3424C0.987567 19.4865 0.969761 19.6301 0.944075 19.7725C0.73064 21.2926 0.687702 22.8295 0.815952 24.358C0.716297 62.9495 0.716297 101.541 0.815952 140.132C0.853323 152.339 12.0271 162.1 25.3151 162.045C38.256 161.995 49.2164 152.004 49.2911 139.842C49.4192 119.43 49.3285 99.0173 49.3285 78.6098V22.5328C49.3605 20.3475 49.2804 18.1573 49.3979 15.972C49.3925 15.8937 49.3925 15.8152 49.3979 15.737C49.5674 14.1381 50.2999 12.6375 51.4799 11.4714C52.2582 10.8105 53.1851 10.3218 54.192 10.0413C54.962 9.81486 55.7661 9.70678 56.573 9.72121C57.1965 9.77101 57.8104 9.89709 58.3989 10.0963C59.6128 10.4814 60.6823 11.1863 61.4793 12.1265C62.5093 13.5231 63.0384 15.1903 62.9901 16.8871C62.9901 38.2098 62.9421 59.5374 62.9901 80.8651C62.9955 83.0504 63.3316 85.224 63.9884 87.3209C65.3139 91.693 68.0216 95.5867 71.7553 98.4894C75.4889 101.392 80.0735 103.168 84.9054 103.583H85.0548C85.3912 103.613 85.7329 103.638 86.0745 103.653H88.5303C88.8773 103.653 89.2244 103.613 89.566 103.583H89.7049C94.5387 103.171 99.1254 101.396 102.86 98.4915C106.594 95.5873 109.301 91.6906 110.622 87.3159C111.273 85.2196 111.609 83.0484 111.62 80.8651C111.684 59.5374 111.62 38.2098 111.62 16.8871C111.567 15.1905 112.095 13.5225 113.126 12.1265C113.924 11.1851 114.995 10.48 116.211 10.0963C116.8 9.89654 117.414 9.77043 118.037 9.72121C118.844 9.70748 119.648 9.81555 120.418 10.0413C121.425 10.3229 122.351 10.8115 123.13 11.4714C124.305 12.639 125.037 14.1362 125.212 15.732C125.218 15.8119 125.218 15.8921 125.212 15.972C125.33 18.1573 125.25 20.3475 125.282 22.5328V78.6098C125.282 99.0173 125.191 119.43 125.319 139.842C125.394 152.004 136.354 161.995 149.295 162.045C162.599 162.1 173.757 152.339 173.794 140.132C173.944 101.544 173.967 62.9529 173.864 24.358Z" fill="#currentColor"/>
    </symbol>

    <symbol id="hide-password-icon" viewBox="0 0 24 17" fill="none">
        <path fill-rule="evenodd" clip-rule="evenodd" d="M12 0C6.54545 0 1.88727 3.39273 0 8.18182C1.88727 12.9709 6.54545 16.3636 12 16.3636C17.4545 16.3636 22.1127 12.9709 24 8.18182C22.1127 3.39273 17.4545 0 12 0ZM12 13.6363C8.9891 13.6363 6.54547 11.1927 6.54547 8.1818C6.54547 5.17089 8.9891 2.72726 12 2.72726C15.0109 2.72726 17.4546 5.17089 17.4546 8.1818C17.4546 11.1927 15.0109 13.6363 12 13.6363ZM8.72726 8.18175C8.72726 6.37084 10.1891 4.90902 12 4.90902C13.8109 4.90902 15.2727 6.37084 15.2727 8.18175C15.2727 9.99266 13.8109 11.4545 12 11.4545C10.1891 11.4545 8.72726 9.99266 8.72726 8.18175Z" fill="currentColor"/>
    </symbol>

    <symbol id="show-password-icon" viewBox="0 0 24 22" fill="none">
        <path d="M23.8524 10.3584C22.9578 8.99769 21.8961 7.75725 20.6929 6.66675L9.33331 18.1575C10.3393 18.4883 11.3898 18.6601 12.4476 18.6667C19.2547 18.6667 23.6676 11.6915 23.8524 11.3945C24.0492 11.0778 24.0492 10.6751 23.8524 10.3584Z" fill="currentColor"/>
        <path fill-rule="evenodd" clip-rule="evenodd" d="M21.6088 0.296619C22.005 -0.098873 22.6466 -0.098873 23.0428 0.296619C23.439 0.692907 23.439 1.33529 23.0428 1.73158L3.76119 21.0132C3.50773 21.2831 3.1274 21.3935 2.76881 21.3014C2.41021 21.2092 2.13027 20.9291 2.03836 20.5704C1.94645 20.2117 2.05717 19.8315 2.32724 19.5782L5.08654 16.8189C3.15383 15.4177 1.4844 13.6854 0.155527 11.7022C-0.0518424 11.3721 -0.0518424 10.9525 0.155527 10.6224C0.350373 10.3129 5.00231 3.04374 12.1781 3.04374C14.0341 3.06243 15.8575 3.53301 17.4907 4.41476L21.6088 0.296619ZM12.1781 7.10286C9.93626 7.10286 8.11886 8.92027 8.11886 11.1621C8.1233 11.8828 8.32474 12.5885 8.70136 13.203L14.22 7.68537C13.6054 7.30814 12.8992 7.10666 12.1781 7.10286Z" fill="currentColor"/>
    </symbol>

    <symbol id="icon-arrow-right" viewBox="0 0 14 24" fill="none">
        <path fill-rule="evenodd" clip-rule="evenodd" d="M13.7132 13.2038C14.1587 12.5279 14.0844 11.6038 13.4911 11.0098C13.4674 10.9861 13.4436 10.9635 13.4186 10.9421L3.78458 1.30806C3.10691 0.630387 1.99805 0.630387 1.32097 1.30806C0.643305 1.98573 0.643305 3.09459 1.32097 3.77166L9.79214 12.2428L1.3085 20.7265C0.630239 21.4047 0.630239 22.5148 1.3085 23.193C1.98677 23.8713 3.09681 23.8713 3.77508 23.193L13.4822 13.4859C13.4822 13.4859 13.4881 13.4806 13.4911 13.4776C13.576 13.3927 13.6503 13.3006 13.7138 13.2038H13.7132Z" fill="currentColor"/>
    </symbol>

    <symbol id="icon-arrow-left" viewBox="0 0 14 24" fill="none">
        <path fill-rule="evenodd" clip-rule="evenodd" d="M0.286764 13.0056C-0.15868 12.3297 -0.0844393 11.4055 0.508892 10.8116C0.532649 10.7878 0.556406 10.7653 0.581351 10.7439L10.2154 1.10981C10.8931 0.432145 12.002 0.432145 12.679 1.10981C13.3567 1.78748 13.3567 2.89634 12.679 3.57342L4.20786 12.0446L12.6915 20.5282C13.3698 21.2065 13.3698 22.3165 12.6915 22.9948C12.0132 23.6731 10.9032 23.6731 10.2249 22.9948L0.517801 13.2877C0.517801 13.2877 0.511862 13.2823 0.508892 13.2794C0.423961 13.1944 0.34972 13.1024 0.28617 13.0056H0.286764Z" fill="currentColor"/>
    </symbol>

    <symbol id="message-send-icon" viewBox="0 0 18 14">
        <path d="M5.43313 5.60843C5.33739 5.6436 5.18159 5.62103 5.09579 5.56303C3.52973 4.50195 0.397439 2.34629 0.389931 2.33921C0.238413 2.19841 0.298959 1.93491 0.49635 1.87301C0.512078 1.86803 11.5557 0.944107 17.063 0.495681C17.1767 0.486285 17.2987 0.571222 17.4164 0.612182C17.3741 0.730587 17.3624 0.876377 17.2846 0.963517C14.3425 4.26617 11.3944 7.5638 8.44681 10.8623C7.71857 11.6775 6.9908 12.4936 6.26302 13.3086C6.16626 13.4171 6.05668 13.5639 5.90762 13.4521C5.8232 13.3888 5.76991 13.2258 5.77464 13.1108C5.85337 11.2213 5.94077 9.3321 6.03818 7.44357C6.04312 7.34151 6.12603 7.20745 6.21337 7.15085C7.81747 6.11623 9.42748 5.09118 11.0361 4.06453C11.4363 3.80884 12.2375 3.29539 12.2379 3.29517C12.3209 3.24016 12.2658 3.10885 12.1676 3.12533C12.1382 3.1303 7.65499 4.79254 5.43313 5.60843Z" fill="currentColor"/>
    </symbol>

    <svg id="add-icon" viewBox="0 0 24 24" fill="none">
        <g clip-path="url(#clip0_429_10970)">
            <circle cx="12" cy="11.999" r="9" stroke="currentColor" stroke-width="2.5" stroke-linecap="round" stroke-linejoin="round"/>
            <path d="M12 9V15" stroke="currentColor" stroke-width="2.5" stroke-linecap="round" stroke-linejoin="round"/>
            <path d="M9 12H15" stroke="currentColor" stroke-width="2.5" stroke-linecap="round" stroke-linejoin="round"/>
        </g>
        <defs>
            <clipPath id="clip0_429_10970">
                <rect width="24" height="24" fill="currentColor"/>
            </clipPath>
        </defs>
    </svg>

</svg>