<svg width="174" height="163" viewBox="0 0 174 163" fill="none" xmlns="http://www.w3.org/2000/svg">
<path d="M173.864 24.358C173.992 22.8295 173.949 21.2926 173.736 19.7725C173.726 19.6283 173.708 19.4848 173.682 19.3424C172.251 8.54606 162.076 0.0100012 150.229 0H24.4502C12.6037 0 2.42821 8.54606 0.997449 19.3424C0.987567 19.4865 0.969761 19.6301 0.944075 19.7725C0.73064 21.2926 0.687702 22.8295 0.815952 24.358C0.716297 62.9495 0.716297 101.541 0.815952 140.132C0.853323 152.339 12.0271 162.1 25.3151 162.045C38.256 161.995 49.2164 152.004 49.2911 139.842C49.4192 119.43 49.3285 99.0173 49.3285 78.6098V22.5328C49.3605 20.3475 49.2804 18.1573 49.3979 15.972C49.3925 15.8937 49.3925 15.8152 49.3979 15.737C49.5674 14.1381 50.2999 12.6375 51.4799 11.4714C52.2582 10.8105 53.1851 10.3218 54.192 10.0413C54.962 9.81486 55.7661 9.70678 56.573 9.72121C57.1965 9.77101 57.8104 9.89709 58.3989 10.0963C59.6128 10.4814 60.6823 11.1863 61.4793 12.1265C62.5093 13.5231 63.0384 15.1903 62.9901 16.8871C62.9901 38.2098 62.9421 59.5374 62.9901 80.8651C62.9955 83.0504 63.3316 85.224 63.9884 87.3209C65.3139 91.693 68.0216 95.5867 71.7553 98.4894C75.4889 101.392 80.0735 103.168 84.9054 103.583H85.0548C85.3912 103.613 85.7329 103.638 86.0745 103.653H88.5303C88.8773 103.653 89.2244 103.613 89.566 103.583H89.7049C94.5387 103.171 99.1254 101.396 102.86 98.4915C106.594 95.5873 109.301 91.6906 110.622 87.3159C111.273 85.2196 111.609 83.0484 111.62 80.8651C111.684 59.5374 111.62 38.2098 111.62 16.8871C111.567 15.1905 112.095 13.5225 113.126 12.1265C113.924 11.1851 114.995 10.48 116.211 10.0963C116.8 9.89654 117.414 9.77043 118.037 9.72121C118.844 9.70748 119.648 9.81555 120.418 10.0413C121.425 10.3229 122.351 10.8115 123.13 11.4714C124.305 12.639 125.037 14.1362 125.212 15.732C125.218 15.8119 125.218 15.8921 125.212 15.972C125.33 18.1573 125.25 20.3475 125.282 22.5328V78.6098C125.282 99.0173 125.191 119.43 125.319 139.842C125.394 152.004 136.354 161.995 149.295 162.045C162.599 162.1 173.757 152.339 173.794 140.132C173.944 101.544 173.967 62.9529 173.864 24.358Z" fill="#FF5964"/>
</svg>
