<svg width="172" height="168" viewBox="0 0 172 168" fill="none" xmlns="http://www.w3.org/2000/svg">
<path d="M171.752 25.4982C171.879 23.9216 171.836 22.3363 171.625 20.7683C171.615 20.6196 171.597 20.4716 171.572 20.3247C170.152 9.18857 160.057 0.383851 148.305 0.373535H23.5213C11.7686 0.373535 1.67364 9.18857 0.254209 20.3247C0.244405 20.4734 0.22674 20.6214 0.201258 20.7683C-0.0104871 22.3363 -0.0530853 23.9216 0.0741496 25.4982C-0.0247165 65.3043 -0.0247165 105.11 0.0741496 144.916C0.111224 157.507 11.1966 167.576 24.3793 167.519C37.2178 167.467 48.0913 157.162 48.1655 144.617C48.2926 123.562 48.2026 102.507 48.2026 81.4575V23.6155C48.2343 21.3615 48.1549 19.1023 48.2714 16.8482C48.2661 16.7675 48.2661 16.6865 48.2714 16.6058C48.4396 14.9567 49.1663 13.4088 50.337 12.206C51.1091 11.5243 52.0286 11.0202 53.0276 10.7308C53.7915 10.4973 54.5892 10.3858 55.3897 10.4007C56.0083 10.4521 56.6173 10.5821 57.2011 10.7876C58.4054 11.1848 59.4665 11.9119 60.2572 12.8817C61.279 14.3222 61.8039 16.0419 61.756 17.7921C61.756 39.7859 61.7084 61.7848 61.756 83.7837C61.7613 86.0378 62.0948 88.2798 62.7465 90.4427C64.0614 94.9524 66.7477 98.9687 70.4518 101.963C74.1559 104.957 78.7041 106.789 83.4978 107.217H83.646C83.9797 107.248 84.3187 107.273 84.6577 107.289H87.094C87.4383 107.289 87.7826 107.248 88.1215 107.217H88.2592C93.0548 106.792 97.6052 104.961 101.31 101.965C105.015 98.9693 107.7 94.95 109.011 90.4376C109.657 88.2753 109.99 86.0358 110.001 83.7837C110.064 61.7848 110.001 39.7859 110.001 17.7921C109.949 16.0421 110.472 14.3216 111.495 12.8817C112.286 11.9107 113.349 11.1834 114.556 10.7876C115.14 10.5816 115.749 10.4515 116.367 10.4007C117.168 10.3865 117.965 10.498 118.729 10.7308C119.728 11.0213 120.647 11.5253 121.42 12.206C122.585 13.4103 123.311 14.9546 123.486 16.6006C123.491 16.6831 123.491 16.7658 123.486 16.8482C123.602 19.1023 123.523 21.3615 123.554 23.6155V81.4575C123.554 102.507 123.464 123.562 123.592 144.617C123.666 157.162 134.539 167.467 147.378 167.519C160.576 167.576 171.646 157.507 171.683 144.916C171.831 105.114 171.854 65.3077 171.752 25.4982Z" fill="#FF5964"/>
</svg>
