<svg width="247" height="48" viewBox="0 0 247 48" fill="none" xmlns="http://www.w3.org/2000/svg">
<path d="M47.3962 7.18947C47.4313 6.73832 47.4195 6.28468 47.3611 5.836C47.3584 5.79346 47.3535 5.7511 47.3465 5.70907C46.9548 2.52244 44.169 0.00295195 40.9257 0H6.49088C3.24763 0 0.461855 2.52244 0.0701509 5.70907C0.0674455 5.7516 0.0625706 5.79397 0.0555387 5.836C-0.00289399 6.28468 -0.0146493 6.73832 0.0204621 7.18947C-0.00682071 18.5801 -0.00682071 29.9706 0.0204621 41.3612C0.0306932 44.9641 3.08978 47.8452 6.72765 47.8289C10.2705 47.8142 13.2712 44.8652 13.2916 41.2756C13.3267 35.2507 13.3019 29.2258 13.3019 23.2023V6.65074C13.3106 6.00574 13.2887 5.35926 13.3209 4.71426C13.3194 4.69116 13.3194 4.668 13.3209 4.6449C13.3673 4.17299 13.5678 3.73007 13.8909 3.38589C14.1039 3.19081 14.3577 3.04655 14.6334 2.96376C14.8442 2.89694 15.0643 2.86503 15.2852 2.86929C15.4559 2.88399 15.624 2.92121 15.7851 2.97999C16.1174 3.09367 16.4102 3.30173 16.6284 3.57924C16.9104 3.99145 17.0552 4.48354 17.042 4.98437C17.042 11.2779 17.0289 17.573 17.042 23.868C17.0435 24.513 17.1355 25.1545 17.3154 25.7735C17.6782 27.0639 18.4195 28.2132 19.4417 29.07C20.4639 29.9267 21.719 30.4509 23.0418 30.5733H23.0827C23.1748 30.5822 23.2684 30.5896 23.3619 30.594H24.0342C24.1292 30.594 24.2243 30.5822 24.3178 30.5733H24.3558C25.6792 30.4517 26.9349 29.9278 27.9573 29.0706C28.9796 28.2134 29.7206 27.0632 30.0823 25.772C30.2607 25.1533 30.3527 24.5124 30.3556 23.868C30.3731 17.573 30.3556 11.2779 30.3556 4.98437C30.3411 4.4836 30.4855 3.99127 30.7678 3.57924C30.9862 3.30138 31.2796 3.09327 31.6126 2.97999C31.7736 2.92104 31.9417 2.88382 32.1124 2.86929C32.3333 2.86524 32.5534 2.89714 32.7643 2.96376C33.0398 3.04688 33.2935 3.19109 33.5068 3.38589C33.8283 3.73049 34.0286 4.17241 34.0768 4.64342C34.0782 4.66701 34.0782 4.69067 34.0768 4.71426C34.1089 5.35926 34.087 6.00574 34.0958 6.65074V23.2023C34.0958 29.2258 34.0709 35.2507 34.106 41.2756C34.1265 44.8652 37.1271 47.8142 40.67 47.8289C44.3122 47.8452 47.3669 44.9641 47.3772 41.3612C47.4181 29.9716 47.4244 18.581 47.3962 7.18947Z" fill="#FF5964"/>
<path d="M88.7044 24.1816C88.7044 17.1667 88.7044 9.95938 88.7044 6.16594C88.5682 4.53963 87.8515 3.01872 86.6876 1.88631C85.5238 0.753909 83.9921 0.0871755 82.3777 0.0102539H81.7503C73.699 0.0102539 71.9109 0.0102539 61.8379 0.0102539C58.3405 0.0102539 55.374 2.93932 55.3664 6.47371C55.3359 18.1114 55.3359 29.7473 55.3664 41.3816C55.3664 44.9724 58.4294 47.8681 62.0741 47.8502C65.6172 47.8374 68.6193 44.8877 68.6396 41.2969C68.6726 35.5055 68.6523 33.4484 68.6396 27.657H75.3702C75.3702 27.7442 75.3855 33.1099 75.3855 34.7155C75.3855 36.8546 75.3855 38.9937 75.3855 41.1277C75.3791 42.0075 75.5452 42.8799 75.8742 43.6946C76.2032 44.5093 76.6886 45.2502 77.3025 45.8746C77.9163 46.4991 78.6464 46.9946 79.4508 47.3328C80.2551 47.671 81.1178 47.8451 81.9891 47.845C82.8675 47.8501 83.7383 47.6795 84.551 47.3429C85.3638 47.0063 86.1025 46.5104 86.7245 45.884C87.3465 45.2575 87.8395 44.5129 88.1749 43.693C88.5104 42.8731 88.6817 41.9942 88.679 41.1071C88.707 38.1319 88.707 31.2503 88.7044 24.1816ZM75.3956 8.23577V6.18388C75.3956 6.36085 75.3753 6.54042 75.3753 6.72252V18.9467H68.6498C68.6498 15.538 68.6498 11.6137 68.6498 8.205C68.6523 5.09894 75.3956 5.14767 75.3956 8.23577Z" fill="#FF5964"/>
<path d="M125.997 27.657H126.945C127.993 27.657 128.998 27.2366 129.74 26.4882C130.482 25.7398 130.898 24.7247 130.899 23.666C130.899 18.2106 130.899 8.80519 130.899 6.16594C130.763 4.53963 130.046 3.01872 128.882 1.88631C127.718 0.753909 126.187 0.0871755 124.572 0.0102539H123.945C115.894 0.0102539 114.106 0.0102539 104.033 0.0102539C100.535 0.0102539 97.5712 2.93932 97.5611 6.47371C97.534 18.1114 97.534 29.7473 97.5611 41.3816C97.5611 44.9724 100.627 47.8681 104.269 47.8502C107.825 47.8374 110.814 44.8877 110.834 41.2969C110.867 35.5055 110.834 33.4484 110.834 27.657H114.047L120.021 44.1388C120.535 45.546 121.58 46.6904 122.928 47.322C124.275 47.9535 125.815 48.0207 127.211 47.5091C128.605 46.9886 129.737 45.9327 130.363 44.5719C130.988 43.2111 131.055 41.6558 130.549 40.2453L125.997 27.657ZM110.845 18.9544C110.845 15.5457 110.845 11.6214 110.845 8.2127C110.845 5.09895 117.585 5.14767 117.585 8.23577L117.565 18.9544H110.845Z" fill="#FF5964"/>
<path d="M242.004 27.6467H242.954C243.474 27.6474 243.988 27.5447 244.468 27.3444C244.949 27.1442 245.385 26.8504 245.753 26.4798C246.12 26.1091 246.412 25.669 246.611 25.1844C246.811 24.6999 246.913 24.1804 246.914 23.6558C246.914 18.2003 246.914 8.79493 246.914 6.15568C246.777 4.52938 246.061 3.00847 244.897 1.87606C243.733 0.743655 242.201 0.0769216 240.587 0H239.96C231.906 0 230.12 0 220.047 0C216.55 0 213.583 2.92907 213.576 6.46345C213.545 18.1011 213.545 29.7371 213.576 41.3713C213.576 44.9622 216.641 47.8579 220.286 47.8399C223.842 47.8271 226.829 44.8775 226.849 41.2867C226.884 35.4952 226.862 33.4382 226.862 27.6467H230.074L236.048 44.1286C236.562 45.5358 237.607 46.6802 238.955 47.3117C240.302 47.9432 241.842 48.0105 243.238 47.4988C244.632 46.9783 245.765 45.9225 246.39 44.5616C247.015 43.2008 247.082 41.6455 246.576 40.2351L242.004 27.6467ZM226.849 18.9441C226.849 15.5354 226.849 11.6112 226.849 8.20244C226.849 5.08869 233.592 5.13742 233.592 8.22552L233.572 18.9441H226.849Z" fill="#FF5964"/>
<path d="M169.453 38.6937L156.96 20.9294L168.041 10.9983C169.115 9.90779 169.718 8.43239 169.718 6.89447C169.718 5.35655 169.115 3.88115 168.041 2.79068C166.961 1.70745 165.5 1.09956 163.977 1.09956C162.455 1.09956 160.994 1.70745 159.914 2.79068L152.469 9.45934V5.81467C152.465 4.27697 151.858 2.80363 150.781 1.71655C149.704 0.629464 148.244 0.0169984 146.722 0.0129395C145.2 0.0190262 143.743 0.632406 142.668 1.71927C141.592 2.80614 140.986 4.2783 140.982 5.81467V42.0614C140.986 43.5989 141.593 45.0721 142.669 46.1595C143.746 47.2469 145.204 47.8603 146.727 47.8657C148.25 47.8609 149.709 47.2479 150.786 46.1604C151.863 45.0729 152.47 43.5993 152.475 42.0614V34.6002L160.094 45.4265C160.979 46.678 162.319 47.5249 163.82 47.782C165.322 48.0392 166.863 47.6856 168.107 46.7987C169.348 45.9027 170.187 44.5465 170.439 43.0272C170.691 41.5079 170.337 39.9495 169.453 38.6937Z" fill="#FF5964"/>
<path d="M199.749 13.404C201.508 13.3986 203.192 12.6907 204.436 11.435C205.679 10.1794 206.38 8.47782 206.386 6.702C206.38 4.92619 205.679 3.22465 204.436 1.96896C203.192 0.713258 201.508 0.00541205 199.749 0H185.429C183.671 0.0047388 181.985 0.712361 180.742 1.9682C179.498 3.22405 178.797 4.92598 178.793 6.702V23.9251V41.1482C178.797 42.9247 179.497 44.6273 180.741 45.8837C181.985 47.14 183.67 47.848 185.429 47.8528H199.749C201.508 47.8474 203.193 47.1392 204.437 45.8829C205.68 44.6267 206.381 42.9245 206.386 41.1482C206.38 39.3724 205.679 37.6708 204.436 36.4151C203.192 35.1595 201.508 34.4516 199.749 34.4462H192.066V30.6271H199.749C201.508 30.6217 203.192 29.9138 204.436 28.6581C205.679 27.4024 206.38 25.7009 206.386 23.9251C206.38 22.1493 205.679 20.4478 204.436 19.1921C203.192 17.9364 201.508 17.2285 199.749 17.2231H192.066V13.404H199.749Z" fill="#FF5964"/>
</svg>
