<svg width="190" height="38" viewBox="0 0 190 38" fill="none" xmlns="http://www.w3.org/2000/svg">
<path d="M68.2006 19.0187C68.2006 13.6265 68.2006 8.08643 68.2006 5.1705C68.0959 3.9204 67.5449 2.75132 66.65 1.88086C65.7552 1.01041 64.5775 0.497909 63.3363 0.438782H62.8539C56.6637 0.438782 55.2889 0.438782 47.5443 0.438782C44.8553 0.438782 42.5745 2.69028 42.5686 5.40708C42.5452 14.3527 42.5452 23.297 42.5686 32.2399C42.5686 35.0001 44.9236 37.226 47.7259 37.2122C50.45 37.2023 52.7581 34.935 52.7738 32.1748C52.7991 27.7231 52.7835 26.1419 52.7738 21.6901H57.9486C57.9486 21.7572 57.9603 25.8817 57.9603 27.1158C57.9603 28.7601 57.9603 30.4044 57.9603 32.0447C57.9554 32.721 58.0831 33.3916 58.3361 34.0179C58.5891 34.6441 58.9623 35.2136 59.4342 35.6936C59.9062 36.1736 60.4675 36.5545 61.0859 36.8144C61.7044 37.0744 62.3676 37.2082 63.0375 37.2082C63.7129 37.2121 64.3824 37.0809 65.0073 36.8222C65.6322 36.5635 66.2001 36.1823 66.6784 35.7008C67.1566 35.2192 67.5356 34.6469 67.7935 34.0166C68.0514 33.3864 68.1832 32.7108 68.1811 32.0289C68.2026 29.7419 68.2026 24.4523 68.2006 19.0187ZM57.9681 6.76153V5.18429C57.9681 5.32033 57.9525 5.45836 57.9525 5.59834V14.9947H52.7816C52.7816 12.3745 52.7816 9.35807 52.7816 6.73788C52.7835 4.35033 57.9681 4.38779 57.9681 6.76153Z" fill="#FF5964"/>
<path d="M96.8732 21.6901H97.6016C98.4076 21.6901 99.1807 21.367 99.7508 20.7917C100.321 20.2165 100.642 19.4362 100.642 18.6224C100.642 14.4289 100.642 7.19923 100.642 5.1705C100.537 3.9204 99.9863 2.75132 99.0914 1.88086C98.1966 1.01041 97.0189 0.497909 95.7777 0.438782H95.2953C89.1051 0.438782 87.7303 0.438782 79.9857 0.438782C77.2967 0.438782 75.0178 2.69028 75.01 5.40708C74.9892 14.3527 74.9892 23.297 75.01 32.2399C75.01 35.0001 77.367 37.226 80.1673 37.2122C82.9011 37.2023 85.1995 34.935 85.2152 32.1748C85.2406 27.7231 85.2152 26.1419 85.2152 21.6901H87.6854L92.2783 34.3593C92.6738 35.441 93.4772 36.3207 94.5131 36.8061C95.549 37.2915 96.7331 37.3433 97.8066 36.9499C98.8778 36.5499 99.7488 35.7382 100.23 34.6922C100.71 33.6462 100.762 32.4507 100.373 31.3665L96.8732 21.6901ZM85.223 15.0007C85.223 12.3805 85.223 9.36399 85.223 6.7438C85.223 4.35033 90.4056 4.38779 90.4056 6.76153L90.39 15.0007H85.223Z" fill="#FF5964"/>
<path d="M186.065 21.6822H186.796C187.195 21.6827 187.591 21.6037 187.96 21.4498C188.329 21.2959 188.665 21.0701 188.947 20.7852C189.23 20.5003 189.454 20.162 189.608 19.7895C189.761 19.417 189.84 19.0177 189.84 18.6145C189.84 14.421 189.84 7.1913 189.84 5.16257C189.735 3.91247 189.184 2.74338 188.289 1.87293C187.395 1.00248 186.217 0.489975 184.976 0.430847H184.493C178.301 0.430847 176.928 0.430847 169.184 0.430847C166.495 0.430847 164.214 2.68235 164.208 5.39915C164.185 14.3447 164.185 23.289 164.208 32.232C164.208 34.9921 166.565 37.218 169.367 37.2042C172.101 37.1944 174.398 34.9271 174.413 32.1669C174.441 27.7151 174.423 26.134 174.423 21.6822H176.893L181.486 34.3514C181.882 35.4331 182.685 36.3128 183.721 36.7982C184.757 37.2836 185.941 37.3353 187.014 36.942C188.086 36.5419 188.957 35.7303 189.437 34.6843C189.918 33.6383 189.969 32.4427 189.58 31.3586L186.065 21.6822ZM174.413 14.9927C174.413 12.3725 174.413 9.35605 174.413 6.73586C174.413 4.3424 179.598 4.37985 179.598 6.7536L179.582 14.9927H174.413Z" fill="#FF5964"/>
<path d="M130.285 30.1737L120.679 16.5187L129.199 8.88488C130.025 8.04666 130.488 6.91256 130.488 5.7304C130.488 4.54823 130.025 3.41413 129.199 2.57592C128.368 1.74326 127.245 1.276 126.075 1.276C124.904 1.276 123.781 1.74326 122.95 2.57592L117.227 7.70195V4.90038C117.223 3.71839 116.756 2.58587 115.928 1.75026C115.1 0.914642 113.978 0.443855 112.808 0.440735C111.638 0.445414 110.517 0.916904 109.691 1.75235C108.864 2.5878 108.398 3.71941 108.394 4.90038V32.7623C108.398 33.9442 108.864 35.0766 109.692 35.9125C110.519 36.7484 111.641 37.2198 112.811 37.2239C113.982 37.2203 115.104 36.7491 115.932 35.9132C116.76 35.0772 117.227 33.9445 117.231 32.7623V27.0271L123.089 35.349C123.769 36.311 124.799 36.962 125.954 37.1597C127.108 37.3573 128.293 37.0856 129.25 36.4038C130.204 35.7151 130.849 34.6726 131.043 33.5047C131.237 32.3369 130.964 31.139 130.285 30.1737Z" fill="#FF5964"/>
<path d="M22.1563 34.2863L14.4878 37.214L14.4663 28.4209H22.1368L22.1563 34.2863Z" fill="#231F20"/>
<path d="M20.9105 27.303H22.1505L22.1641 34.2823L19.856 35.1636L20.9105 27.303Z" fill="#3A3335"/>
<path d="M36.4406 5.96722C36.4668 5.6202 36.4576 5.27137 36.4132 4.92624L36.4015 4.82963C36.2378 3.62168 35.6489 2.51359 34.7424 1.70807C33.8359 0.90256 32.6725 0.453468 31.4649 0.442932H25.5617H10.8496H4.99127C3.78372 0.453468 2.62029 0.90256 1.7138 1.70807C0.807313 2.51359 0.218354 3.62168 0.054666 4.82963L0.0429618 4.92624C-0.00172244 5.27136 -0.0102324 5.62029 0.0175749 5.96722C-0.0058583 14.7209 -0.0058583 23.4739 0.0175749 32.2263C0.0175749 34.9963 2.37262 37.2104 5.17288 37.1985C7.89504 37.1867 10.2013 34.9194 10.2169 32.1612C10.2442 27.532 10.2169 22.8949 10.2169 18.2717C10.2169 14.0328 10.2169 9.79335 10.2169 5.5532C10.2169 5.05637 10.2052 4.56742 10.2306 4.06467C10.2296 4.04694 10.2296 4.02916 10.2306 4.01143C10.2673 3.64868 10.4218 3.30836 10.6699 3.0434C10.8339 2.89382 11.0286 2.78275 11.2401 2.71811C11.402 2.66785 11.5707 2.64324 11.74 2.64516C11.8734 2.65707 12.0046 2.68621 12.1306 2.7319C12.3857 2.81933 12.6107 2.97874 12.7789 3.19126C12.9947 3.50866 13.1054 3.88687 13.0952 4.27169C13.0952 9.10791 13.0952 13.9461 13.0952 18.7843C13.0975 19.0576 13.1197 19.3304 13.1616 19.6005L13.1734 24.7443C13.1768 24.9131 13.2165 25.0791 13.2896 25.2309C13.3628 25.3827 13.4677 25.5167 13.5971 25.6236C13.8847 25.8637 14.2471 25.9936 14.6204 25.9903L21.9003 26.0021C22.0915 26.0048 22.2816 25.9714 22.4607 25.9035C22.6333 25.8467 22.7932 25.7563 22.9313 25.6374C23.0593 25.5276 23.1648 25.3937 23.2418 25.2431C23.311 25.0943 23.3476 24.9323 23.3492 24.7679L23.3278 13.7647C23.3278 10.6023 23.3278 7.44062 23.3278 4.27956C23.3172 3.8944 23.4287 3.5159 23.6461 3.19916C23.8131 2.98629 24.0376 2.82676 24.2924 2.73979C24.4184 2.6941 24.5496 2.66494 24.683 2.65303C24.8524 2.65099 25.021 2.6756 25.1829 2.72598C25.3944 2.79062 25.5891 2.90171 25.7531 3.05129C26.0012 3.31625 26.1557 3.65658 26.1925 4.01933C26.1934 4.03706 26.1934 4.05483 26.1925 4.07256C26.2178 4.56742 26.1925 5.05832 26.2061 5.56107C26.2061 9.80122 26.2061 14.0407 26.2061 18.2795C26.2061 22.9087 26.1886 27.5458 26.2061 32.1691C26.2218 34.9293 28.528 37.1946 31.2501 37.2064C34.0504 37.2183 36.3996 35.0042 36.4074 32.2342C36.4516 23.4752 36.4627 14.7196 36.4406 5.96722Z" fill="#FF5964"/>
<path d="M153.578 10.7342C154.93 10.73 156.225 10.1859 157.181 9.22069C158.137 8.25546 158.676 6.94754 158.68 5.58251C158.676 4.21748 158.137 2.90956 157.181 1.94434C156.225 0.979111 154.93 0.435007 153.578 0.430847H142.568C141.216 0.43449 139.92 0.978422 138.964 1.94376C138.008 2.90909 137.469 4.21732 137.465 5.58251V18.8215V32.0605C137.468 33.426 138.007 34.7347 138.963 35.7005C139.919 36.6662 141.215 37.2104 142.568 37.2141H153.578C154.93 37.2099 156.226 36.6656 157.182 35.6999C158.138 34.7343 158.677 33.4258 158.68 32.0605C158.676 30.6954 158.137 29.3875 157.181 28.4223C156.225 27.4571 154.93 26.9129 153.578 26.9088H147.67V23.9731H153.578C154.93 23.969 156.225 23.4249 157.181 22.4597C158.137 21.4944 158.676 20.1865 158.68 18.8215C158.676 17.4565 158.137 16.1485 157.181 15.1833C156.225 14.2181 154.93 13.674 153.578 13.6698H147.67V10.7342H153.578Z" fill="#FF5964"/>
</svg>
